<svg width="17" height="16" viewBox="0 0 17 16" fill="none" xmlns="http://www.w3.org/2000/svg">
<path fill-rule="evenodd" clip-rule="evenodd" d="M9.071 11.429V6.286H6.786V7.429H7.929V11.429H6.214V12.571H10.786V11.43H9.07L9.071 11.429ZM8.5 2.857C8.38746 2.857 8.27602 2.87917 8.17204 2.92224C8.06806 2.9653 7.97359 3.02843 7.89401 3.10801C7.81443 3.18759 7.7513 3.28206 7.70824 3.38604C7.66517 3.49002 7.643 3.60146 7.643 3.714C7.643 3.82654 7.66517 3.93798 7.70824 4.04196C7.7513 4.14594 7.81443 4.24041 7.89401 4.31999C7.97359 4.39957 8.06806 4.4627 8.17204 4.50576C8.27602 4.54883 8.38746 4.571 8.5 4.571C8.72729 4.571 8.94527 4.48071 9.10599 4.31999C9.26671 4.15927 9.357 3.94129 9.357 3.714C9.357 3.48671 9.26671 3.26873 9.10599 3.10801C8.94527 2.94729 8.72729 2.857 8.5 2.857ZM8.5 16C6.37827 16 4.34344 15.1571 2.84315 13.6569C1.34285 12.1566 0.5 10.1217 0.5 8C0.5 5.87827 1.34285 3.84344 2.84315 2.34315C4.34344 0.842855 6.37827 0 8.5 0C10.6217 0 12.6566 0.842855 14.1569 2.34315C15.6571 3.84344 16.5 5.87827 16.5 8C16.5 10.1217 15.6571 12.1566 14.1569 13.6569C12.6566 15.1571 10.6217 16 8.5 16ZM8.5 1.143C6.68141 1.143 4.93731 1.86543 3.65137 3.15137C2.36543 4.43731 1.643 6.18141 1.643 8C1.643 9.81859 2.36543 11.5627 3.65137 12.8486C4.93731 14.1346 6.68141 14.857 8.5 14.857C10.3186 14.857 12.0627 14.1346 13.3486 12.8486C14.6346 11.5627 15.357 9.81859 15.357 8C15.357 6.18141 14.6346 4.43731 13.3486 3.15137C12.0627 1.86543 10.3186 1.143 8.5 1.143Z" fill="#5C667B"/>
</svg>