<svg width="11" height="18" viewBox="0 0 11 18" fill="none" xmlns="http://www.w3.org/2000/svg">
<g clip-path="url(#clip0_1_503)">
<path d="M6.80818 8.26323C6.80818 8.26323 6.93099 8.14042 7.17659 7.89482C7.4222 7.64921 7.545 7.17929 7.545 6.48504C7.545 5.7908 7.29939 5.19807 6.80818 4.70686C6.31697 4.21565 5.72425 3.97004 5.03 3.97004C4.33576 3.97004 3.74303 4.21565 3.25182 4.70686C2.76061 5.19807 2.515 5.7908 2.515 6.48504C2.515 7.17929 2.76061 7.77202 3.25182 8.26323C3.74303 8.75444 4.33576 9.00004 5.03 9.00004C5.72425 9.00004 6.31697 8.75444 6.80818 8.26323ZM10.06 6.48504C10.06 7.19894 9.95193 7.78512 9.7358 8.24358L6.15979 15.8475C6.05499 16.0637 5.89944 16.2339 5.69313 16.3584C5.48683 16.4828 5.26578 16.545 5.03 16.545C4.79422 16.545 4.57317 16.4828 4.36687 16.3584C4.16056 16.2339 4.00828 16.0637 3.91004 15.8475L0.324199 8.24358C0.108066 7.78512 0 7.19894 0 6.48504C0 5.09655 0.491211 3.9111 1.47363 2.92868C2.45605 1.94625 3.64151 1.45504 5.03 1.45504C6.41849 1.45504 7.60395 1.94625 8.58637 2.92868C9.56879 3.9111 10.06 5.09655 10.06 6.48504Z" fill="#333333"/>
</g>
<defs>
<clipPath id="clip0_1_503">
<rect width="10.06" height="18" fill="white" transform="matrix(1 0 0 -1 0 18)"/>
</clipPath>
</defs>
</svg>
